<svg width="32" height="32" viewBox="0 0 16 16" fill="none" xmlns="http://www.w3.org/2000/svg">
<path d="M6 10L5.99999 10.5H6V10ZM10 10L10 10.5L10 10.5L10 10ZM2.5 8C2.5 4.96243 4.96243 2.5 8 2.5V1.5C4.41015 1.5 1.5 4.41015 1.5 8H2.5ZM8 2.5C11.0376 2.5 13.5 4.96243 13.5 8H14.5C14.5 4.41015 11.5899 1.5 8 1.5V2.5ZM8 13.5C4.96243 13.5 2.5 11.0376 2.5 8H1.5C1.5 11.5899 4.41015 14.5 8 14.5V13.5ZM13.5 8C13.5 11.0376 11.0376 13.5 8 13.5V14.5C11.5899 14.5 14.5 11.5899 14.5 8H13.5ZM9.5 6C9.5 6.82843 8.82843 7.5 8 7.5V8.5C9.38071 8.5 10.5 7.38071 10.5 6H9.5ZM8 7.5C7.17157 7.5 6.5 6.82843 6.5 6H5.5C5.5 7.38071 6.61929 8.5 8 8.5V7.5ZM6.5 6C6.5 5.17157 7.17157 4.5 8 4.5V3.5C6.61929 3.5 5.5 4.61929 5.5 6H6.5ZM8 4.5C8.82843 4.5 9.5 5.17157 9.5 6H10.5C10.5 4.61929 9.38071 3.5 8 3.5V4.5ZM6 10.5H10V9.5H6V10.5ZM10 10.5C10.4005 10.5 10.7654 10.7261 11.0512 11.1232C11.3393 11.5235 11.5 12.0398 11.5 12.4722H12.5C12.5 11.8247 12.2702 11.105 11.8629 10.5391C11.4534 9.97007 10.8183 9.49998 9.99999 9.5L10 10.5ZM4.5 12.4722C4.5 12.0398 4.66072 11.5235 4.94877 11.1232C5.23455 10.7261 5.59946 10.5 5.99999 10.5L6.00001 9.5C5.18169 9.49998 4.54659 9.97007 4.13709 10.5391C3.72985 11.105 3.5 11.8247 3.5 12.4722H4.5Z" fill="#F06A6A"/>
</svg>
