<svg width="32" height="32" viewBox="0 0 16 16" fill="none" xmlns="http://www.w3.org/2000/svg">
<path d="M8.00002 2L8.32928 1.62371C8.14076 1.45876 7.85928 1.45876 7.67077 1.62371L8.00002 2ZM2.66669 6.66667L2.33743 6.29038C2.22893 6.38532 2.16669 6.52249 2.16669 6.66667L2.66669 6.66667ZM13.3334 6.66667L13.8334 6.66667C13.8334 6.52249 13.7711 6.38532 13.6626 6.29038L13.3334 6.66667ZM13.3334 13.3333V13.8333C13.466 13.8333 13.5931 13.7807 13.6869 13.6869C13.7807 13.5931 13.8334 13.4659 13.8334 13.3333L13.3334 13.3333ZM10 13.3333H9.50002C9.50002 13.6095 9.72388 13.8333 10 13.8333V13.3333ZM9.41424 9.25245L9.76779 8.8989L9.76779 8.8989L9.41424 9.25245ZM6.00002 13.3333V13.8333C6.27617 13.8333 6.50002 13.6095 6.50002 13.3333H6.00002ZM2.66669 13.3333L2.16669 13.3333C2.16669 13.6095 2.39055 13.8333 2.66669 13.8333L2.66669 13.3333ZM7.67077 1.62371L2.33743 6.29038L2.99594 7.04295L8.32928 2.37629L7.67077 1.62371ZM13.6626 6.29038L8.32928 1.62371L7.67077 2.37629L13.0041 7.04295L13.6626 6.29038ZM12.8334 6.66667L12.8334 13.3333L13.8334 13.3333L13.8334 6.66667L12.8334 6.66667ZM13.3334 12.8333H10V13.8333H13.3334V12.8333ZM10.5 13.3333V10.6667H9.50002V13.3333H10.5ZM10.5 10.6667C10.5 10.0036 10.2366 9.36774 9.76779 8.8989L9.06068 9.60601C9.34199 9.88731 9.50002 10.2688 9.50002 10.6667H10.5ZM9.76779 8.8989C9.29895 8.43006 8.66307 8.16667 8.00002 8.16667V9.16667C8.39785 9.16667 8.77938 9.3247 9.06068 9.60601L9.76779 8.8989ZM8.00002 8.16667C7.33698 8.16667 6.7011 8.43006 6.23226 8.8989L6.93936 9.60601C7.22067 9.3247 7.6022 9.16667 8.00002 9.16667V8.16667ZM6.23226 8.8989C5.76342 9.36774 5.50002 10.0036 5.50002 10.6667H6.50002C6.50002 10.2688 6.65806 9.88731 6.93936 9.60601L6.23226 8.8989ZM5.50002 10.6667V13.3333H6.50002V10.6667H5.50002ZM6.00002 12.8333H2.66669V13.8333H6.00002V12.8333ZM3.16669 13.3333L3.16669 6.66667L2.16669 6.66667L2.16669 13.3333L3.16669 13.3333Z" fill="#A1246D"/>
</svg>
