<svg width="32" height="32" viewBox="0 0 16 16" fill="none" xmlns="http://www.w3.org/2000/svg">
<path d="M7.99999 2L8.32925 1.62371C8.14073 1.45876 7.85925 1.45876 7.67074 1.62371L7.99999 2ZM2.66666 6.66667L2.3374 6.29038C2.2289 6.38532 2.16666 6.52249 2.16666 6.66667L2.66666 6.66667ZM13.3333 6.66667L13.8333 6.66667C13.8333 6.52249 13.7711 6.38532 13.6626 6.29038L13.3333 6.66667ZM13.3333 13.3333V13.8333C13.4659 13.8333 13.5931 13.7807 13.6869 13.6869C13.7806 13.5931 13.8333 13.4659 13.8333 13.3333L13.3333 13.3333ZM9.99999 13.3333H9.49999C9.49999 13.6095 9.72385 13.8333 9.99999 13.8333V13.3333ZM9.41421 9.25245L9.76776 8.8989L9.76776 8.8989L9.41421 9.25245ZM5.99999 13.3333V13.8333C6.27614 13.8333 6.49999 13.6095 6.49999 13.3333H5.99999ZM2.66666 13.3333L2.16666 13.3333C2.16666 13.6095 2.39052 13.8333 2.66666 13.8333L2.66666 13.3333ZM7.67074 1.62371L2.3374 6.29038L2.99591 7.04295L8.32925 2.37629L7.67074 1.62371ZM13.6626 6.29038L8.32925 1.62371L7.67074 2.37629L13.0041 7.04295L13.6626 6.29038ZM12.8333 6.66667L12.8333 13.3333L13.8333 13.3333L13.8333 6.66667L12.8333 6.66667ZM13.3333 12.8333H9.99999V13.8333H13.3333V12.8333ZM10.5 13.3333V10.6667H9.49999V13.3333H10.5ZM10.5 10.6667C10.5 10.0036 10.2366 9.36774 9.76776 8.8989L9.06065 9.60601C9.34196 9.88731 9.49999 10.2688 9.49999 10.6667H10.5ZM9.76776 8.8989C9.29892 8.43006 8.66303 8.16667 7.99999 8.16667V9.16667C8.39782 9.16667 8.77935 9.3247 9.06065 9.60601L9.76776 8.8989ZM7.99999 8.16667C7.33695 8.16667 6.70107 8.43006 6.23223 8.8989L6.93933 9.60601C7.22064 9.3247 7.60217 9.16667 7.99999 9.16667V8.16667ZM6.23223 8.8989C5.76338 9.36774 5.49999 10.0036 5.49999 10.6667H6.49999C6.49999 10.2688 6.65803 9.88731 6.93933 9.60601L6.23223 8.8989ZM5.49999 10.6667V13.3333H6.49999V10.6667H5.49999ZM5.99999 12.8333H2.66666V13.8333H5.99999V12.8333ZM3.16666 13.3333L3.16666 6.66667L2.16666 6.66667L2.16666 13.3333L3.16666 13.3333Z" fill="white"/>
</svg>
