<svg width="32" height="32" viewBox="0 0 16 16" fill="none" xmlns="http://www.w3.org/2000/svg">
<path d="M2.66666 2.66667V2.16667C2.39051 2.16667 2.16666 2.39053 2.16666 2.66667H2.66666ZM13.3333 2.66667H13.8333C13.8333 2.39053 13.6095 2.16667 13.3333 2.16667V2.66667ZM13.3333 13.3333V13.8333C13.6095 13.8333 13.8333 13.6095 13.8333 13.3333H13.3333ZM2.66666 13.3333H2.16666C2.16666 13.6095 2.39051 13.8333 2.66666 13.8333V13.3333ZM4.66666 4.83334C4.39051 4.83334 4.16666 5.0572 4.16666 5.33334C4.16666 5.60948 4.39051 5.83334 4.66666 5.83334V4.83334ZM11.3333 5.83334C11.6095 5.83334 11.8333 5.60948 11.8333 5.33334C11.8333 5.0572 11.6095 4.83334 11.3333 4.83334V5.83334ZM4.66666 7.5C4.39051 7.5 4.16666 7.72386 4.16666 8C4.16666 8.27615 4.39051 8.5 4.66666 8.5V7.5ZM11.3333 8.5C11.6095 8.5 11.8333 8.27615 11.8333 8C11.8333 7.72386 11.6095 7.5 11.3333 7.5V8.5ZM4.66666 10.1667C4.39051 10.1667 4.16666 10.3905 4.16666 10.6667C4.16666 10.9428 4.39051 11.1667 4.66666 11.1667V10.1667ZM8.66666 11.1667C8.9428 11.1667 9.16666 10.9428 9.16666 10.6667C9.16666 10.3905 8.9428 10.1667 8.66666 10.1667V11.1667ZM2.66666 3.16667H13.3333V2.16667H2.66666V3.16667ZM12.8333 2.66667V13.3333H13.8333V2.66667H12.8333ZM13.3333 12.8333H2.66666V13.8333H13.3333V12.8333ZM3.16666 13.3333V2.66667H2.16666V13.3333H3.16666ZM4.66666 5.83334H11.3333V4.83334H4.66666V5.83334ZM4.66666 8.5H11.3333V7.5H4.66666V8.5ZM4.66666 11.1667H8.66666V10.1667H4.66666V11.1667Z" fill="white"/>
</svg>
