<svg width="32" height="32" viewBox="0 0 16 16" fill="none" xmlns="http://www.w3.org/2000/svg">
<path d="M2.66669 2.66667V2.16667C2.39054 2.16667 2.16669 2.39053 2.16669 2.66667H2.66669ZM13.3334 2.66667H13.8334C13.8334 2.39053 13.6095 2.16667 13.3334 2.16667V2.66667ZM13.3334 13.3333V13.8333C13.6095 13.8333 13.8334 13.6095 13.8334 13.3333H13.3334ZM2.66669 13.3333H2.16669C2.16669 13.6095 2.39054 13.8333 2.66669 13.8333V13.3333ZM4.66669 4.83334C4.39054 4.83334 4.16669 5.0572 4.16669 5.33334C4.16669 5.60948 4.39054 5.83334 4.66669 5.83334V4.83334ZM11.3334 5.83334C11.6095 5.83334 11.8334 5.60948 11.8334 5.33334C11.8334 5.0572 11.6095 4.83334 11.3334 4.83334V5.83334ZM4.66669 7.5C4.39054 7.5 4.16669 7.72386 4.16669 8C4.16669 8.27615 4.39054 8.5 4.66669 8.5V7.5ZM11.3334 8.5C11.6095 8.5 11.8334 8.27615 11.8334 8C11.8334 7.72386 11.6095 7.5 11.3334 7.5V8.5ZM4.66669 10.1667C4.39054 10.1667 4.16669 10.3905 4.16669 10.6667C4.16669 10.9428 4.39054 11.1667 4.66669 11.1667V10.1667ZM8.66669 11.1667C8.94283 11.1667 9.16669 10.9428 9.16669 10.6667C9.16669 10.3905 8.94283 10.1667 8.66669 10.1667V11.1667ZM2.66669 3.16667H13.3334V2.16667H2.66669V3.16667ZM12.8334 2.66667V13.3333H13.8334V2.66667H12.8334ZM13.3334 12.8333H2.66669V13.8333H13.3334V12.8333ZM3.16669 13.3333V2.66667H2.16669V13.3333H3.16669ZM4.66669 5.83334H11.3334V4.83334H4.66669V5.83334ZM4.66669 8.5H11.3334V7.5H4.66669V8.5ZM4.66669 11.1667H8.66669V10.1667H4.66669V11.1667Z" fill="black"/>
</svg>
