<svg width="32" height="32" viewBox="0 0 16 16" fill="none" xmlns="http://www.w3.org/2000/svg">
<path fill-rule="evenodd" clip-rule="evenodd" d="M8.00002 6.00001C6.89545 6.00001 6.00002 6.89544 6.00002 8C6.00002 9.10457 6.89545 10 8.00002 10C9.10459 10 10 9.10457 10 8C10 6.89544 9.10459 6.00001 8.00002 6.00001ZM4.66669 8C4.66669 6.15906 6.15907 4.66667 8.00002 4.66667C9.84097 4.66667 11.3334 6.15906 11.3334 8C11.3334 9.84095 9.84097 11.3333 8.00002 11.3333C6.15907 11.3333 4.66669 9.84095 4.66669 8Z" fill="black"/>
<path fill-rule="evenodd" clip-rule="evenodd" d="M7.99998 0.666672C8.36817 0.666672 8.66665 0.965149 8.66665 1.33334V2.66667C8.66665 3.03486 8.36817 3.33334 7.99998 3.33334C7.63179 3.33334 7.33331 3.03486 7.33331 2.66667V1.33334C7.33331 0.965149 7.63179 0.666672 7.99998 0.666672Z" fill="black"/>
<path fill-rule="evenodd" clip-rule="evenodd" d="M7.99998 12.6667C8.36817 12.6667 8.66665 12.9651 8.66665 13.3333V14.6667C8.66665 15.0349 8.36817 15.3333 7.99998 15.3333C7.63179 15.3333 7.33331 15.0349 7.33331 14.6667V13.3333C7.33331 12.9651 7.63179 12.6667 7.99998 12.6667Z" fill="black"/>
<path fill-rule="evenodd" clip-rule="evenodd" d="M2.86195 2.86193C3.1223 2.60158 3.54441 2.60158 3.80476 2.86193L4.80476 3.86193C5.06511 4.12228 5.06511 4.54439 4.80476 4.80474C4.54441 5.06509 4.1223 5.06509 3.86195 4.80474L2.86195 3.80474C2.6016 3.54439 2.6016 3.12228 2.86195 2.86193Z" fill="black"/>
<path fill-rule="evenodd" clip-rule="evenodd" d="M11.1953 11.1953C11.4556 10.9349 11.8777 10.9349 12.1381 11.1953L13.1381 12.1953C13.3984 12.4556 13.3984 12.8777 13.1381 13.1381C12.8777 13.3984 12.4556 13.3984 12.1953 13.1381L11.1953 12.1381C10.9349 11.8777 10.9349 11.4556 11.1953 11.1953Z" fill="black"/>
<path fill-rule="evenodd" clip-rule="evenodd" d="M0.666687 7.99999C0.666687 7.63181 0.965164 7.33333 1.33335 7.33333H2.66669C3.03488 7.33333 3.33335 7.63181 3.33335 7.99999C3.33335 8.36818 3.03488 8.66666 2.66669 8.66666H1.33335C0.965164 8.66666 0.666687 8.36818 0.666687 7.99999Z" fill="black"/>
<path fill-rule="evenodd" clip-rule="evenodd" d="M12.6667 7.99999C12.6667 7.63181 12.9652 7.33333 13.3334 7.33333H14.6667C15.0349 7.33333 15.3334 7.63181 15.3334 7.99999C15.3334 8.36818 15.0349 8.66666 14.6667 8.66666H13.3334C12.9652 8.66666 12.6667 8.36818 12.6667 7.99999Z" fill="black"/>
<path fill-rule="evenodd" clip-rule="evenodd" d="M4.80476 11.1953C5.06511 11.4556 5.06511 11.8777 4.80476 12.1381L3.80476 13.1381C3.54441 13.3984 3.1223 13.3984 2.86195 13.1381C2.6016 12.8777 2.6016 12.4556 2.86195 12.1953L3.86195 11.1953C4.1223 10.9349 4.54441 10.9349 4.80476 11.1953Z" fill="black"/>
<path fill-rule="evenodd" clip-rule="evenodd" d="M13.1381 2.86193C13.3984 3.12228 13.3984 3.54439 13.1381 3.80474L12.1381 4.80474C11.8777 5.06509 11.4556 5.06509 11.1953 4.80474C10.9349 4.54439 10.9349 4.12228 11.1953 3.86193L12.1953 2.86193C12.4556 2.60158 12.8777 2.60158 13.1381 2.86193Z" fill="black"/>
</svg>
